<svg xmlns="http://www.w3.org/2000/svg" viewBox="0 0 1000 1000">
	<path fill="pink" d="M475.67 11.65c-8.52 2.64-14.19 6.89-18.45 13.79-3.45 5.47-4.06 10.75-4.66 34.47-.61 23.52-1.62 30.62-5.88 44.2-10.54 31.83-32.04 60.02-59.82 78.27-26.16 17.03-53.94 24.74-87.6 23.72-16.83-.41-20.28 0-26.36 3.85-13.38 8.31-15.21 14.19-15.21 46.23.2 38.32 7.5 70.76 22.51 100.57l4.66 9.33-14.8 1.22c-25.35 1.83-45.22 15.01-55.96 36.9-4.06 8.31-5.07 13.18-5.07 27.37 0 14.8.81 18.65 5.48 27.58 8.11 15.21 23.52 28.19 39.54 33.25 12.98 4.06 18.45 4.06 245.96 4.06s232.98 0 245.96-4.06c16.02-5.07 31.43-18.05 39.54-33.25 4.66-8.92 5.47-12.77 5.47-27.58 0-14.19-1.01-19.06-5.07-27.37-10.75-22.1-31.02-35.28-56.17-37.11l-14.6-1.01 4.26-8.11c12.98-25.55 21.29-58.4 23.11-91.65 7.1-121.46-84.55-233.59-207.02-253.46-19.27-3.24-51.31-3.85-59.82-1.21zM316.9 561.76c108.89 315.1 140.52 403.91 146.19 410.8C472.01 983.71 485.6 990 500.8 990c15-.21 26.16-5.27 36.09-16.83 6.89-8.11 18.25-40.35 142.55-400.26l15.21-44H305.34l11.56 32.85zm182.9 181.47c0 82.32-.61 148.22-1.22 146.6-.61-1.62-23.32-68.94-50.49-149.64l-49.07-146.4H500l-.2 149.44z"/>
</svg>
